<?xml version="1.0" standalone="no"?>
<!DOCTYPE svg PUBLIC "-//W3C//DTD SVG 20010904//EN"
 "http://www.w3.org/TR/2001/REC-SVG-20010904/DTD/svg10.dtd">
<svg version="1.0" xmlns="http://www.w3.org/2000/svg"
 width="300.000000pt" height="300.000000pt" viewBox="0 0 300.000000 300.000000"
 preserveAspectRatio="xMidYMid meet">
<metadata>
Created by potrace 1.16, written by Peter Selinger 2001-2019
</metadata>
<g transform="translate(0.000000,300.000000) scale(0.100000,-0.100000)"
fill="#000000" stroke="none">
<path d="M1367 2989 c-414 -36 -799 -246 -1049 -573 -325 -422 -403 -972 -209
-1471 147 -378 480 -704 864 -846 491 -181 1029 -100 1443 219 449 344 664
929 548 1488 -94 459 -417 862 -841 1053 -172 77 -312 114 -504 131 -124 11
-124 11 -252 -1z m563 -723 c0 -6 -17 -72 -39 -146 -21 -74 -37 -136 -36 -138
1 -2 60 20 129 48 70 28 131 48 137 45 5 -4 9 -13 9 -21 0 -9 -71 -115 -158
-237 -88 -122 -167 -234 -176 -249 -17 -26 -17 -27 58 -176 42 -82 76 -157 76
-167 0 -10 64 -116 141 -237 78 -121 144 -228 146 -238 3 -10 0 -21 -7 -25
-12 -7 -301 33 -321 45 -7 5 -11 47 -10 128 l2 120 -318 104 -318 104 2 38 c2
29 -15 71 -78 199 -45 89 -83 163 -84 165 -2 2 -70 10 -151 18 -81 7 -152 18
-157 23 -14 14 1 32 110 131 l103 92 192 -72 c106 -39 197 -72 202 -73 4 -1
29 65 55 147 l46 149 209 123 c191 113 236 132 236 100z"/>
<path d="M1695 2110 c-82 -49 -150 -93 -150 -97 0 -5 38 -82 84 -173 l84 -165
73 255 c40 140 74 258 74 263 0 14 -15 6 -165 -83z"/>
<path d="M1934 1957 l-101 -41 -43 -154 c-23 -84 -40 -155 -38 -158 3 -2 58
71 123 163 65 93 130 183 143 201 13 17 23 32 21 31 -2 0 -49 -19 -105 -42z"/>
<path d="M1507 1945 c-4 -11 -51 -166 -107 -344 -55 -178 -100 -327 -100 -332
0 -8 538 -189 564 -189 13 0 16 14 15 78 l0 77 -183 365 c-132 262 -185 359
-189 345z"/>
<path d="M1162 1588 l111 -223 44 135 c23 74 45 149 49 166 l6 30 -154 57
c-84 32 -156 57 -161 57 -4 0 43 -100 105 -222z"/>
<path d="M1926 1064 c-3 -26 -6 -93 -6 -149 l0 -102 106 -17 c59 -9 109 -15
111 -13 3 3 -186 308 -202 325 -1 1 -5 -18 -9 -44z"/>
</g>
</svg>
